<svg xmlns="http://www.w3.org/2000/svg" xmlns:xlink="http://www.w3.org/1999/xlink" version="1.1" class="marks" width="1064" height="464" viewBox="0 0 532 232"><g fill="none" stroke-miterlimit="10" transform="translate(24,10)"><g class="mark-group role-frame root" role="graphics-object" aria-roledescription="group mark container"><g transform="translate(0,0)"><path class="background" aria-hidden="true" d="M0,0h500v200h-500Z"/><g><g class="mark-group role-axis" role="graphics-symbol" aria-roledescription="axis" aria-label="X-axis for a discrete scale with 10 values: 0, 1, 2, 3, 4, ending with 9"><g transform="translate(0.5,200.5)"><path class="background" aria-hidden="true" d="M0,0h0v0h0Z" pointer-events="none"/><g><g class="mark-rule role-axis-tick" pointer-events="none"><line transform="translate(0,0)" x2="0" y2="5" stroke="#888" stroke-width="1" opacity="1"/><line transform="translate(56,0)" x2="0" y2="5" stroke="#888" stroke-width="1" opacity="1"/><line transform="translate(111,0)" x2="0" y2="5" stroke="#888" stroke-width="1" opacity="1"/><line transform="translate(167,0)" x2="0" y2="5" stroke="#888" stroke-width="1" opacity="1"/><line transform="translate(222,0)" x2="0" y2="5" stroke="#888" stroke-width="1" opacity="1"/><line transform="translate(278,0)" x2="0" y2="5" stroke="#888" stroke-width="1" opacity="1"/><line transform="translate(333,0)" x2="0" y2="5" stroke="#888" stroke-width="1" opacity="1"/><line transform="translate(389,0)" x2="0" y2="5" stroke="#888" stroke-width="1" opacity="1"/><line transform="translate(444,0)" x2="0" y2="5" stroke="#888" stroke-width="1" opacity="1"/><line transform="translate(500,0)" x2="0" y2="5" stroke="#888" stroke-width="1" opacity="1"/></g><g class="mark-text role-axis-label" pointer-events="none"><text text-anchor="middle" transform="translate(0,15)" font-family="sans-serif" font-size="10px" fill="#000" opacity="1">0</text><text text-anchor="middle" transform="translate(55.55555555555556,15)" font-family="sans-serif" font-size="10px" fill="#000" opacity="1">1</text><text text-anchor="middle" transform="translate(111.11111111111111,15)" font-family="sans-serif" font-size="10px" fill="#000" opacity="1">2</text><text text-anchor="middle" transform="translate(166.66666666666669,15)" font-family="sans-serif" font-size="10px" fill="#000" opacity="1">3</text><text text-anchor="middle" transform="translate(222.22222222222223,15)" font-family="sans-serif" font-size="10px" fill="#000" opacity="1">4</text><text text-anchor="middle" transform="translate(277.77777777777777,15)" font-family="sans-serif" font-size="10px" fill="#000" opacity="1">5</text><text text-anchor="middle" transform="translate(333.33333333333337,15)" font-family="sans-serif" font-size="10px" fill="#000" opacity="1">6</text><text text-anchor="middle" transform="translate(388.8888888888889,15)" font-family="sans-serif" font-size="10px" fill="#000" opacity="1">7</text><text text-anchor="middle" transform="translate(444.44444444444446,15)" font-family="sans-serif" font-size="10px" fill="#000" opacity="1">8</text><text text-anchor="middle" transform="translate(500,15)" font-family="sans-serif" font-size="10px" fill="#000" opacity="1">9</text></g><g class="mark-rule role-axis-domain" pointer-events="none"><line transform="translate(0,0)" x2="500" y2="0" stroke="#888" stroke-width="1" opacity="1"/></g></g><path class="foreground" aria-hidden="true" d="" pointer-events="none" display="none"/></g></g><g class="mark-group role-axis" role="graphics-symbol" aria-roledescription="axis" aria-label="Y-axis for a linear scale with values from 0 to 90"><g transform="translate(0.5,0.5)"><path class="background" aria-hidden="true" d="M0,0h0v0h0Z" pointer-events="none"/><g><g class="mark-rule role-axis-tick" pointer-events="none"><line transform="translate(0,200)" x2="-5" y2="0" stroke="#888" stroke-width="1" opacity="1"/><line transform="translate(0,178)" x2="-5" y2="0" stroke="#888" stroke-width="1" opacity="1"/><line transform="translate(0,156)" x2="-5" y2="0" stroke="#888" stroke-width="1" opacity="1"/><line transform="translate(0,133)" x2="-5" y2="0" stroke="#888" stroke-width="1" opacity="1"/><line transform="translate(0,111)" x2="-5" y2="0" stroke="#888" stroke-width="1" opacity="1"/><line transform="translate(0,89)" x2="-5" y2="0" stroke="#888" stroke-width="1" opacity="1"/><line transform="translate(0,67)" x2="-5" y2="0" stroke="#888" stroke-width="1" opacity="1"/><line transform="translate(0,44)" x2="-5" y2="0" stroke="#888" stroke-width="1" opacity="1"/><line transform="translate(0,22)" x2="-5" y2="0" stroke="#888" stroke-width="1" opacity="1"/><line transform="translate(0,0)" x2="-5" y2="0" stroke="#888" stroke-width="1" opacity="1"/></g><g class="mark-text role-axis-label" pointer-events="none"><text text-anchor="end" transform="translate(-7,203)" font-family="sans-serif" font-size="10px" fill="#000" opacity="1">0</text><text text-anchor="end" transform="translate(-7,180.77777777777777)" font-family="sans-serif" font-size="10px" fill="#000" opacity="1">10</text><text text-anchor="end" transform="translate(-7,158.55555555555557)" font-family="sans-serif" font-size="10px" fill="#000" opacity="1">20</text><text text-anchor="end" transform="translate(-7,136.33333333333334)" font-family="sans-serif" font-size="10px" fill="#000" opacity="1">30</text><text text-anchor="end" transform="translate(-7,114.11111111111111)" font-family="sans-serif" font-size="10px" fill="#000" opacity="1">40</text><text text-anchor="end" transform="translate(-7,91.88888888888889)" font-family="sans-serif" font-size="10px" fill="#000" opacity="1">50</text><text text-anchor="end" transform="translate(-7,69.66666666666667)" font-family="sans-serif" font-size="10px" fill="#000" opacity="1">60</text><text text-anchor="end" transform="translate(-7,47.44444444444444)" font-family="sans-serif" font-size="10px" fill="#000" opacity="1">70</text><text text-anchor="end" transform="translate(-7,25.222222222222232)" font-family="sans-serif" font-size="10px" fill="#000" opacity="1">80</text><text text-anchor="end" transform="translate(-7,3)" font-family="sans-serif" font-size="10px" fill="#000" opacity="1">90</text></g><g class="mark-rule role-axis-domain" pointer-events="none"><line transform="translate(0,200)" x2="0" y2="-200" stroke="#888" stroke-width="1" opacity="1"/></g></g><path class="foreground" aria-hidden="true" d="" pointer-events="none" display="none"/></g></g><g class="mark-group role-scope" role="graphics-object" aria-roledescription="group mark container"><g transform="translate(0,0)"><path class="background" aria-hidden="true" d="M0,0h0v0h0Z"/><g><g class="mark-line role-mark" role="graphics-symbol" aria-roledescription="line mark container"><path d="M0,137.778C0,137.778,38.679,120.635,55.556,104.444C76.636,84.221,94.059,18.301,111.111,20C131.784,22.06,145.343,154.935,166.667,157.778C183.448,160.015,203.227,85.21,222.222,84.444C240.309,83.716,261.281,149.593,277.778,146.667C299.946,142.735,315.223,6.352,333.333,6.667C352.299,6.996,368.948,161.097,388.889,162.222C406.32,163.206,422.262,54.143,444.444,48.889C460.938,44.982,500,91.111,500,91.111" stroke="#4c78a8" stroke-opacity="1" stroke-width="2"/></g></g><path class="foreground" aria-hidden="true" d="" display="none"/></g><g transform="translate(0,0)"><path class="background" aria-hidden="true" d="M0,0h0v0h0Z"/><g><g class="mark-line role-mark" role="graphics-symbol" aria-roledescription="line mark container"><path d="M0,155.556C0,155.556,37.847,120.042,55.556,122.222C75.056,124.623,90.814,171.632,111.111,177.778C128.347,182.996,149.901,177.176,166.667,166.667C188.031,153.274,202.352,95.807,222.222,93.333C239.696,91.158,260.62,140.495,277.778,137.778C298.229,134.539,314.899,53.224,333.333,53.333C351.937,53.444,367.203,121.45,388.889,140C405.54,154.244,425.797,163.801,444.444,164.444C462.837,165.079,500,144.444,500,144.444" stroke="#f58518" stroke-opacity="1" stroke-width="2"/></g></g><path class="foreground" aria-hidden="true" d="" display="none"/></g></g></g><path class="foreground" aria-hidden="true" d="" display="none"/></g></g></g></svg>